<?xml version="1.0" encoding="UTF-8" ?>
<!DOCTYPE svg PUBLIC "-//W3C//DTD SVG 1.1//EN" "http://www.w3.org/Graphics/SVG/1.1/DTD/svg11.dtd">
<svg width="467pt" height="495pt" viewBox="0 0 467 495" version="1.1" xmlns="http://www.w3.org/2000/svg">
<g id="#000000ff">
</g>
<g id="#ffffffff">
<path fill="#ffffff" opacity="1.00" d=" M 189.60 59.01 C 190.80 59.20 192.01 59.38 193.22 59.57 C 195.98 63.83 198.96 70.33 204.99 69.71 C 219.45 69.45 233.92 69.85 248.38 69.51 C 251.16 64.80 255.11 60.65 260.27 58.60 C 260.34 59.22 260.46 60.45 260.52 61.07 C 261.81 60.72 263.09 60.37 264.38 60.02 C 264.44 60.44 264.57 61.27 264.63 61.68 C 272.60 64.13 281.17 64.14 288.99 66.94 C 293.75 74.67 300.65 80.84 305.19 88.73 C 308.68 95.02 312.81 101.02 317.97 106.06 C 325.54 113.74 330.63 123.32 336.99 131.91 C 338.07 134.22 337.62 136.94 337.93 139.43 C 337.57 139.46 336.83 139.53 336.46 139.56 C 337.54 149.75 325.94 151.33 318.70 153.44 C 318.66 153.79 318.59 154.51 318.56 154.87 C 312.90 154.04 307.14 154.09 301.48 154.87 C 301.43 154.50 301.31 153.77 301.25 153.40 C 292.92 153.76 286.16 148.59 278.47 146.43 C 269.74 142.66 261.66 137.38 252.54 134.55 C 241.02 132.54 229.46 140.47 224.22 150.32 C 217.53 138.99 202.46 129.76 189.43 136.42 C 182.44 140.50 174.35 142.20 167.54 146.55 C 159.29 153.14 148.21 154.81 137.94 154.40 C 131.73 154.94 125.70 153.04 120.17 150.41 C 114.78 144.52 111.06 135.91 115.40 128.32 C 126.11 112.67 135.69 96.25 146.96 80.98 C 150.13 76.07 152.46 70.63 156.30 66.16 C 157.84 66.34 159.38 66.51 160.93 66.65 C 163.53 64.20 167.16 64.34 170.46 64.76 C 170.45 64.31 170.42 63.40 170.41 62.95 C 172.08 63.32 173.74 63.68 175.41 64.04 C 175.49 63.67 175.63 62.91 175.70 62.53 C 180.35 62.08 184.83 60.14 189.57 60.70 C 189.57 60.28 189.59 59.43 189.60 59.01 M 170.30 80.18 C 169.94 85.09 172.44 91.74 167.67 95.09 C 162.67 96.14 157.52 95.06 152.46 95.41 C 149.52 97.42 150.60 101.67 150.07 104.72 C 155.78 109.88 164.26 104.73 170.19 108.82 C 171.46 113.21 169.74 118.15 170.91 122.67 C 173.20 126.38 178.07 125.62 181.72 125.04 C 187.21 121.01 183.08 113.47 185.24 108.28 C 190.50 105.28 197.51 108.53 203.06 107.12 C 204.02 103.98 202.84 100.20 203.17 96.83 C 197.75 94.94 192.01 95.80 186.42 95.57 C 182.08 91.26 187.50 83.19 182.65 78.88 C 178.78 75.97 173.92 77.91 170.30 80.18 M 260.30 81.25 C 254.88 86.55 255.92 95.91 260.76 101.23 C 263.59 104.47 268.20 103.38 271.99 103.64 C 274.80 101.16 277.80 98.92 280.77 96.65 C 280.50 95.24 280.23 93.83 279.98 92.42 C 280.57 92.44 281.75 92.48 282.34 92.51 C 279.83 87.52 277.36 80.66 270.94 79.96 C 267.44 79.78 263.12 78.42 260.30 81.25 M 238.54 109.50 C 238.19 109.52 237.49 109.57 237.14 109.60 C 237.16 111.19 237.17 112.78 237.16 114.37 C 237.50 114.42 238.17 114.51 238.50 114.55 C 237.67 120.66 243.95 124.11 249.16 124.75 C 253.67 124.91 257.30 121.43 260.34 118.50 C 264.49 113.12 261.83 105.00 256.13 101.84 C 250.25 96.37 237.47 100.73 238.54 109.50 M 284.76 99.73 C 273.68 101.14 270.98 117.30 280.24 122.75 C 289.59 129.69 304.78 116.07 297.82 106.25 C 294.59 102.72 289.98 98.12 284.76 99.73 Z" />
<path fill="#ffffff" opacity="1.00" d=" M 342.02 136.69 C 343.52 140.46 344.53 144.40 345.31 148.38 C 345.70 148.39 346.47 148.42 346.86 148.43 C 346.21 157.42 346.95 167.50 340.91 174.96 C 335.92 180.63 331.81 187.18 325.61 191.66 C 321.97 194.58 319.17 198.92 314.32 199.95 C 304.40 202.09 294.54 205.33 284.27 205.02 C 284.38 204.55 284.60 203.59 284.70 203.12 C 279.36 203.21 273.97 202.77 268.80 201.37 C 253.99 197.13 239.36 191.89 225.92 184.28 C 213.27 191.06 199.25 195.03 185.67 199.71 C 179.48 201.95 172.80 202.79 166.25 201.99 C 166.38 202.49 166.64 203.49 166.77 203.99 C 162.30 203.71 157.83 203.69 153.36 203.96 C 153.43 203.45 153.58 202.43 153.65 201.92 C 151.28 202.25 148.91 202.61 146.55 203.00 C 146.51 202.56 146.44 201.67 146.41 201.22 C 140.10 202.01 134.76 197.87 129.12 195.81 C 117.71 188.46 106.76 178.10 103.79 164.33 C 103.13 159.40 103.78 154.39 103.16 149.44 C 103.53 149.48 104.27 149.54 104.65 149.57 C 104.51 146.29 105.17 143.05 106.13 139.93 C 111.01 141.44 110.36 147.54 112.76 151.20 C 115.88 158.09 123.10 160.99 129.07 164.79 C 130.61 164.52 132.14 164.25 133.67 163.97 C 133.60 164.46 133.45 165.43 133.37 165.92 C 137.79 165.58 142.22 165.59 146.63 165.95 C 146.59 165.51 146.49 164.62 146.45 164.17 C 152.54 164.40 157.83 161.37 163.42 159.50 C 173.93 157.81 180.46 147.93 190.95 146.02 C 200.85 143.53 210.47 148.23 218.69 153.31 C 221.30 155.09 222.39 158.15 223.69 160.87 C 230.77 148.04 248.57 142.01 262.12 147.86 C 273.04 152.52 283.00 159.33 294.49 162.64 C 303.49 166.39 313.99 167.13 323.02 163.09 C 327.71 161.00 334.39 160.07 336.21 154.51 C 337.77 150.61 339.24 146.65 341.43 143.06 C 341.57 140.93 341.71 138.80 342.02 136.69 Z" />
<path fill="#ffffff" opacity="1.00" d=" M 350.61 161.49 C 352.09 161.36 353.57 161.23 355.05 161.10 C 358.86 171.01 356.37 181.77 357.36 192.09 C 356.10 207.25 354.07 222.39 351.06 237.31 C 349.20 243.13 350.19 249.74 346.70 255.01 C 346.23 259.62 344.76 264.04 343.05 268.32 C 340.31 257.82 340.74 245.71 334.07 236.73 C 335.60 242.97 335.69 249.36 334.91 255.72 C 335.44 255.61 336.48 255.39 337.01 255.28 C 337.97 265.23 334.41 274.91 336.01 284.75 C 335.55 284.63 334.61 284.39 334.14 284.27 C 333.60 302.72 328.63 322.19 315.06 335.44 C 314.88 329.81 315.06 324.12 313.60 318.62 C 313.68 311.85 313.18 304.92 310.23 298.69 C 308.74 307.24 310.42 315.95 309.36 324.49 C 307.84 328.76 308.24 333.29 308.97 337.67 C 308.50 337.61 307.56 337.48 307.10 337.42 C 307.97 342.97 306.22 348.35 305.21 353.74 C 303.49 362.42 300.44 371.40 293.56 377.36 C 293.36 376.60 292.95 375.08 292.75 374.33 C 293.37 374.48 294.62 374.77 295.25 374.92 C 294.73 370.43 294.68 365.92 294.87 361.41 C 294.52 361.45 293.82 361.51 293.48 361.54 C 292.92 356.15 290.96 350.71 287.22 346.71 C 286.33 352.54 284.99 358.30 284.43 364.17 C 284.16 364.30 283.61 364.56 283.34 364.69 C 284.50 371.98 279.50 378.13 278.83 385.18 C 278.13 391.63 274.20 396.93 271.73 402.74 C 267.18 420.55 253.77 434.16 242.00 447.64 C 236.30 451.79 231.50 456.98 226.76 462.15 C 225.99 461.65 225.23 461.15 224.47 460.65 C 225.45 457.45 226.22 454.17 226.55 450.84 C 226.88 450.74 227.53 450.55 227.86 450.45 C 225.95 441.15 230.08 429.26 221.74 422.30 C 212.66 414.50 206.40 404.18 199.55 394.53 C 197.08 387.30 194.49 380.05 192.61 372.62 C 192.19 372.61 191.35 372.59 190.93 372.58 C 191.31 370.89 191.69 369.20 192.07 367.52 C 191.58 367.55 190.59 367.60 190.09 367.62 C 190.84 362.27 190.87 356.84 190.17 351.48 C 190.51 351.43 191.20 351.31 191.54 351.25 C 191.87 349.73 192.23 348.22 192.59 346.71 C 191.49 346.50 190.40 346.29 189.31 346.09 C 183.35 353.64 180.18 363.01 178.76 372.43 C 178.34 372.43 177.50 372.42 177.08 372.41 C 177.23 375.32 177.31 378.24 177.22 381.16 C 171.27 377.02 167.19 370.95 162.07 365.96 C 157.07 359.10 155.09 350.58 150.65 343.37 C 146.32 334.20 146.20 323.77 144.28 313.96 C 142.93 308.01 147.23 302.18 144.59 296.44 C 135.45 305.46 135.86 319.64 132.23 331.25 C 130.89 325.78 129.55 320.21 129.77 314.54 C 129.41 314.53 128.69 314.52 128.32 314.52 C 126.86 304.52 128.47 294.41 127.10 284.40 C 127.50 284.41 128.29 284.41 128.68 284.41 C 128.50 276.62 132.78 269.64 135.81 262.72 C 124.45 265.94 120.46 277.91 118.17 288.26 C 109.97 272.37 104.98 255.17 99.89 238.13 C 99.30 235.59 99.10 232.80 97.23 230.81 C 97.48 229.35 97.76 227.89 98.03 226.44 C 97.61 226.44 96.75 226.42 96.33 226.41 C 94.63 212.32 91.88 198.25 92.86 184.00 C 92.11 177.66 93.08 171.39 96.11 165.73 C 96.91 165.75 98.50 165.79 99.30 165.81 C 99.03 172.37 99.81 179.16 103.10 184.96 C 112.93 199.11 127.73 210.06 144.52 214.34 C 149.70 214.10 154.68 216.06 159.81 215.80 C 163.99 214.48 168.33 214.03 172.66 214.94 C 172.58 214.45 172.42 213.46 172.34 212.97 C 174.38 213.35 176.43 213.74 178.47 214.11 C 178.49 213.64 178.54 212.69 178.56 212.22 C 189.35 211.28 199.36 207.70 209.12 203.23 C 217.50 197.96 228.04 197.15 237.25 200.76 C 248.85 206.83 261.31 212.49 274.54 213.29 C 274.54 213.73 274.54 214.60 274.54 215.04 C 276.59 214.68 278.63 214.30 280.68 213.94 C 280.61 214.45 280.45 215.47 280.38 215.98 C 284.65 215.08 288.91 215.61 293.06 216.79 C 297.01 216.30 300.90 214.89 304.98 215.57 C 307.99 212.92 312.49 214.10 315.72 211.81 C 323.19 207.51 331.14 203.44 337.22 197.22 C 344.56 186.79 351.75 174.77 350.61 161.49 M 143.57 295.34 C 144.72 295.41 145.88 295.49 147.03 295.58 C 146.96 294.38 146.88 293.19 146.82 292.00 C 145.73 293.11 144.65 294.22 143.57 295.34 M 308.16 297.38 C 306.51 301.99 312.64 296.79 308.16 297.38 Z" />
</g>
</svg>
